HIERARCHY
ROOT Hips
{
	OFFSET 0.000000 121.760803 0.000000
	CHANNELS 6 Xposition Yposition Zposition Xrotation Yrotation Zrotation 
	JOINT Spine
	{
		OFFSET 0.072000 7.257294 -0.789700
		CHANNELS 3 Xrotation Yrotation Zrotation
		JOINT Spine1
		{
			OFFSET 0.000000 12.508769 -0.658067
			CHANNELS 3 Xrotation Yrotation Zrotation
			JOINT Spine1_split
			{
				OFFSET 0.000000 12.508769 -0.658067
				CHANNELS 3 Xrotation Yrotation Zrotation
				JOINT Spine2
				{
					OFFSET 0.000000 12.508769 -0.658067
					CHANNELS 3 Xrotation Yrotation Zrotation
					JOINT Neck
					{
						OFFSET 0.000000 14.033295 7.520400
						CHANNELS 3 Xrotation Yrotation Zrotation
						JOINT Head
						{
							OFFSET 0.000000 8.198502 5.703100
							CHANNELS 3 Xrotation Yrotation Zrotation
							JOINT HeadTop_End
							{
								OFFSET 0.000000 17.760803 13.332701
								CHANNELS 3 Xrotation Yrotation Zrotation
								End Site
								{
									OFFSET 0.000000 0.000000 0.000000
								}
							}
						}
					}
					JOINT LeftShoulder
					{
						OFFSET 6.292450 5.785301 -0.669000
						CHANNELS 3 Xrotation Yrotation Zrotation
						JOINT LeftShoulder_split
						{
							OFFSET 6.292450 5.785301 -0.669000
							CHANNELS 3 Xrotation Yrotation Zrotation
							JOINT LeftArm
							{
								OFFSET 13.907140 -6.093903 1.965100
								CHANNELS 3 Xrotation Yrotation Zrotation
								JOINT LeftForeArm
								{
									OFFSET 34.140198 0.000000 0.000000
									CHANNELS 3 Xrotation Yrotation Zrotation
									JOINT LeftHand
									{
										OFFSET 40.960209 0.000000 0.000000
										CHANNELS 3 Xrotation Yrotation Zrotation
										JOINT LeftHandThumb1
										{
											OFFSET 10.006996 -7.170425 9.573125
											CHANNELS 3 Xrotation Yrotation Zrotation
											JOINT LeftHandThumb2
											{
												OFFSET 1.835007 -1.059448 1.059443
												CHANNELS 3 Xrotation Yrotation Zrotation
												JOINT LeftHandThumb3
												{
													OFFSET 2.112267 -1.219513 1.219518
													CHANNELS 3 Xrotation Yrotation Zrotation
													JOINT LeftHandThumb4
													{
														OFFSET 4.843811 -2.796570 2.796576
														CHANNELS 3 Xrotation Yrotation Zrotation
														End Site
														{
															OFFSET 0.000000 0.000000 0.000000
														}
													}
												}
											}
										}
										JOINT LeftHandIndex1
										{
											OFFSET 18.389847 -0.922348 4.596882
											CHANNELS 3 Xrotation Yrotation Zrotation
											JOINT LeftHandIndex2
											{
												OFFSET 4.711273 0.000000 0.000000
												CHANNELS 3 Xrotation Yrotation Zrotation
												JOINT LeftHandIndex3
												{
													OFFSET 2.886131 0.000000 0.000000
													CHANNELS 3 Xrotation Yrotation Zrotation
													JOINT LeftHandIndex4
													{
														OFFSET 6.145912 0.000000 0.000000
														CHANNELS 3 Xrotation Yrotation Zrotation
														End Site
														{
															OFFSET 0.000000 0.000000 0.000000
														}
													}
												}
											}
										}
										JOINT LeftHandMiddle1
										{
											OFFSET 18.013008 0.000000 0.000000
											CHANNELS 3 Xrotation Yrotation Zrotation
											JOINT LeftHandMiddle2
											{
												OFFSET 4.946693 0.000000 0.000000
												CHANNELS 3 Xrotation Yrotation Zrotation
												JOINT LeftHandMiddle3
												{
													OFFSET 3.342232 0.000000 0.000000
													CHANNELS 3 Xrotation Yrotation Zrotation
													JOINT LeftHandMiddle4
													{
														OFFSET 4.461754 0.000000 0.000000
														CHANNELS 3 Xrotation Yrotation Zrotation
														End Site
														{
															OFFSET 0.000000 0.000000 0.000000
														}
													}
												}
											}
										}
										JOINT LeftHandRing1
										{
											OFFSET 15.849892 -0.102921 -4.126150
											CHANNELS 3 Xrotation Yrotation Zrotation
											JOINT LeftHandRing2
											{
												OFFSET 3.527054 0.000000 0.000000
												CHANNELS 3 Xrotation Yrotation Zrotation
												JOINT LeftHandRing3
												{
													OFFSET 2.961098 0.000000 0.000000
													CHANNELS 3 Xrotation Yrotation Zrotation
													JOINT LeftHandRing4
													{
														OFFSET 4.927200 0.000000 0.000000
														CHANNELS 3 Xrotation Yrotation Zrotation
														End Site
														{
															OFFSET 0.000000 0.000000 0.000000
														}
													}
												}
											}
										}
										JOINT LeftHandPinky1
										{
											OFFSET 12.791824 -0.832031 -6.799156
											CHANNELS 3 Xrotation Yrotation Zrotation
											JOINT LeftHandPinky2
											{
												OFFSET 3.327133 0.000000 0.000000
												CHANNELS 3 Xrotation Yrotation Zrotation
												JOINT LeftHandPinky3
												{
													OFFSET 3.014900 0.000000 0.000000
													CHANNELS 3 Xrotation Yrotation Zrotation
													JOINT LeftHandPinky4
													{
														OFFSET 5.847786 0.000000 0.000000
														CHANNELS 3 Xrotation Yrotation Zrotation
														End Site
														{
															OFFSET 0.000000 0.000000 0.000000
														}
													}
												}
											}
										}
									}
								}
							}
						}
					}
					JOINT RightShoulder
					{
						OFFSET -6.292450 5.785301 -0.669000
						CHANNELS 3 Xrotation Yrotation Zrotation
						JOINT RightShoulder_split
						{
							OFFSET -6.292450 5.785301 -0.669000
							CHANNELS 3 Xrotation Yrotation Zrotation
							JOINT RightArm
							{
								OFFSET -13.907140 -6.093903 1.965100
								CHANNELS 3 Xrotation Yrotation Zrotation
								JOINT RightForeArm
								{
									OFFSET -34.140198 0.000000 0.000000
									CHANNELS 3 Xrotation Yrotation Zrotation
									JOINT RightHand
									{
										OFFSET -40.960209 0.000000 0.000000
										CHANNELS 3 Xrotation Yrotation Zrotation
										JOINT RightHandThumb1
										{
											OFFSET -10.007050 -7.170456 9.573117
											CHANNELS 3 Xrotation Yrotation Zrotation
											JOINT RightHandThumb2
											{
												OFFSET -1.835007 -1.059448 1.059443
												CHANNELS 3 Xrotation Yrotation Zrotation
												JOINT RightHandThumb3
												{
													OFFSET -2.112267 -1.219513 1.219518
													CHANNELS 3 Xrotation Yrotation Zrotation
													JOINT RightHandThumb4
													{
														OFFSET -4.843834 -2.796585 2.796590
														CHANNELS 3 Xrotation Yrotation Zrotation
														End Site
														{
															OFFSET 0.000000 0.000000 0.000000
														}
													}
												}
											}
										}
										JOINT RightHandIndex1
										{
											OFFSET -18.389870 -0.922424 4.596786
											CHANNELS 3 Xrotation Yrotation Zrotation
											JOINT RightHandIndex2
											{
												OFFSET -4.711273 0.000000 0.000000
												CHANNELS 3 Xrotation Yrotation Zrotation
												JOINT RightHandIndex3
												{
													OFFSET -2.886131 0.000000 0.000000
													CHANNELS 3 Xrotation Yrotation Zrotation
													JOINT RightHandIndex4
													{
														OFFSET -6.145920 0.000000 0.000000
														CHANNELS 3 Xrotation Yrotation Zrotation
														End Site
														{
															OFFSET 0.000000 0.000000 0.000000
														}
													}
												}
											}
										}
										JOINT RightHandMiddle1
										{
											OFFSET -18.013008 0.000000 0.000000
											CHANNELS 3 Xrotation Yrotation Zrotation
											JOINT RightHandMiddle2
											{
												OFFSET -4.946693 0.000000 0.000000
												CHANNELS 3 Xrotation Yrotation Zrotation
												JOINT RightHandMiddle3
												{
													OFFSET -3.342232 0.000000 0.000000
													CHANNELS 3 Xrotation Yrotation Zrotation
													JOINT RightHandMiddle4
													{
														OFFSET -4.461754 0.000000 0.000000
														CHANNELS 3 Xrotation Yrotation Zrotation
														End Site
														{
															OFFSET 0.000000 0.000000 0.000000
														}
													}
												}
											}
										}
										JOINT RightHandRing1
										{
											OFFSET -15.849876 -0.102936 -4.126237
											CHANNELS 3 Xrotation Yrotation Zrotation
											JOINT RightHandRing2
											{
												OFFSET -3.527054 0.000000 0.000000
												CHANNELS 3 Xrotation Yrotation Zrotation
												JOINT RightHandRing3
												{
													OFFSET -2.961098 0.000000 0.000000
													CHANNELS 3 Xrotation Yrotation Zrotation
													JOINT RightHandRing4
													{
														OFFSET -4.927200 0.000000 0.000000
														CHANNELS 3 Xrotation Yrotation Zrotation
														End Site
														{
															OFFSET 0.000000 0.000000 0.000000
														}
													}
												}
											}
										}
										JOINT RightHandPinky1
										{
											OFFSET -12.791786 -0.832077 -6.799222
											CHANNELS 3 Xrotation Yrotation Zrotation
											JOINT RightHandPinky2
											{
												OFFSET -3.327133 0.000000 0.000000
												CHANNELS 3 Xrotation Yrotation Zrotation
												JOINT RightHandPinky3
												{
													OFFSET -3.014900 0.000000 0.000000
													CHANNELS 3 Xrotation Yrotation Zrotation
													JOINT RightHandPinky4
													{
														OFFSET -5.847786 0.000000 0.000000
														CHANNELS 3 Xrotation Yrotation Zrotation
														End Site
														{
															OFFSET 0.000000 0.000000 0.000000
														}
													}
												}
											}
										}
									}
								}
							}
						}
					}
				}
			}
		}
	}
	JOINT LeftUpLeg
	{
		OFFSET 13.026900 -6.336304 -1.092800
		CHANNELS 3 Xrotation Yrotation Zrotation
		JOINT LeftLeg
		{
			OFFSET 0.524474 -46.096886 9.782700
			CHANNELS 3 Xrotation Yrotation Zrotation
			JOINT LeftFoot
			{
				OFFSET -0.524474 -53.427422 -12.948200
				CHANNELS 3 Xrotation Yrotation Zrotation
				JOINT LeftToeBase
				{
					OFFSET 0.192200 -14.009700 16.364100
					CHANNELS 3 Xrotation Yrotation Zrotation
					JOINT LeftToe_End
					{
						OFFSET -1.784700 -0.561700 9.474800
						CHANNELS 3 Xrotation Yrotation Zrotation
						End Site
						{
							OFFSET 0.000000 0.000000 0.000000
						}
					}
				}
			}
		}
	}
	JOINT RightUpLeg
	{
		OFFSET -12.883000 -6.336304 -1.092800
		CHANNELS 3 Xrotation Yrotation Zrotation
		JOINT RightLeg
		{
			OFFSET -0.524587 -46.096825 9.782800
			CHANNELS 3 Xrotation Yrotation Zrotation
			JOINT RightFoot
			{
				OFFSET 0.524587 -53.427383 -12.948300
				CHANNELS 3 Xrotation Yrotation Zrotation
				JOINT RightToeBase
				{
					OFFSET -0.192200 -14.009700 16.364100
					CHANNELS 3 Xrotation Yrotation Zrotation
					JOINT RightToe_End
					{
						OFFSET 1.784700 -0.561700 9.474800
						CHANNELS 3 Xrotation Yrotation Zrotation
						End Site
						{
							OFFSET 0.000000 0.000000 0.000000
						}
					}
				}
			}
		}
	}
}
MOTION
Frames: 4
Frame Time: 0.016667
-0.120537 117.854179 0.752290 -4.120138 -1.692573 0.602669 3.461849 1.714625 -2.460065 0.710881 0.526839 -0.263052 0.000000 0.000000 0.000000 0.710198 0.523097 -0.267070 2.609733 -0.754816 0.156819 18.950505 -7.303244 0.624142 -0.000001 0.000000 0.000000 2.730607 -4.471828 -12.384153 0.000000 0.000000 0.000000 -6.603776 -10.273121 -60.669169 0.000002 -16.775180 -0.000002 21.485695 -10.082275 -12.336709 3.397817 -6.557753 3.595377 15.353596 21.247764 9.263503 -12.577493 5.210850 15.704463 -0.000003 -0.000004 -0.000002 -1.222346 -0.461779 -28.262360 0.291707 1.827308 -18.139055 0.038975 0.675386 -6.605505 -0.000002 -0.000002 -0.000001 0.095132 4.196360 -33.991201 0.439518 2.228193 -22.314289 0.188178 1.474412 -14.546790 0.000004 -0.000001 -0.000004 5.761700 10.460337 -44.834537 0.435457 2.218276 -22.209376 0.278401 1.786193 -17.716910 -0.000001 0.000002 0.000000 11.866687 15.214665 -50.260381 0.411981 2.159930 -21.594862 0.689702 2.759697 -28.059088 -0.000000 -0.000003 -0.000000 1.996584 1.476375 14.937830 0.000000 0.000000 0.000000 -2.025624 7.814283 63.299973 -0.000001 12.108132 0.000020 6.522652 12.381287 10.265025 -1.352772 9.111908 0.370100 17.058275 -29.720994 -6.078661 -13.949238 -13.457319 -16.103952 0.000000 -0.000002 -0.000000 -1.823894 1.946413 21.104019 0.341700 -1.752636 22.062548 0.059810 -0.744754 9.182108 -0.000001 -0.000000 0.000001 -0.809702 -1.799965 27.787967 0.365847 -1.811051 22.839212 0.241663 -1.482176 18.519423 -0.000000 0.000001 0.000000 2.161596 -6.996789 31.854599 0.441462 -1.980945 25.124419 0.360401 -1.798066 22.666268 0.000002 0.000000 0.000002 4.447235 -11.624196 37.638826 0.491083 -2.083404 26.523592 0.610438 -2.306959 29.638957 -0.000001 -0.000002 -0.000001 -4.906107 8.067267 5.907639 14.383699 9.386086 1.353585 -4.146470 4.953237 -7.425230 1.066092 -0.000012 0.000000 0.000000 -0.000000 -0.000000 -3.057702 -9.135142 -7.909308 15.435003 -9.269589 1.222238 -6.825653 -4.815865 5.879543 -1.455178 -0.000005 -0.000000 -0.000000 -0.000001 -0.000000 
-0.259358 117.692581 0.447204 -4.299991 -1.317688 0.705729 3.651718 1.904466 -2.416788 0.742683 0.579923 -0.240280 0.000000 0.000000 0.000000 0.742191 0.575776 -0.244851 2.557503 -0.815733 0.156847 18.874464 -7.890827 0.747876 0.000001 -0.000000 -0.000000 2.723278 -4.477274 -12.342103 0.000000 0.000000 0.000000 -6.439326 -9.530075 -60.740012 -0.000008 -16.130147 -0.000027 22.222878 -9.762255 -12.288142 3.397821 -6.557750 3.595378 15.386471 21.304726 9.230597 -12.471112 5.306284 15.630406 0.000001 0.000002 -0.000002 -1.171231 -0.431670 -28.161490 0.297627 1.845212 -18.323144 0.038483 0.671147 -6.563860 -0.000002 0.000004 0.000005 0.117152 4.248502 -34.358645 0.437366 2.222935 -22.258693 0.191497 1.487108 -14.674996 0.000002 0.000002 0.000002 5.785883 10.499922 -44.722689 0.442095 2.234461 -22.380464 0.289767 1.821363 -18.077941 0.000001 -0.000002 0.000002 12.010694 15.220095 -50.621592 0.430311 2.205656 -22.076466 0.697335 2.773943 -28.217033 -0.000000 0.000002 0.000000 1.997862 1.678048 14.926607 0.000000 0.000000 0.000000 -2.716033 8.083338 63.101959 -0.000001 12.576852 0.000003 6.347675 12.451771 10.578711 -1.352772 9.111909 0.370099 17.109371 -29.778225 -6.033864 -14.027952 -13.265815 -16.227583 -0.000002 0.000001 0.000003 -1.914898 1.926757 21.734833 0.354114 -1.782951 22.465027 0.063665 -0.768280 9.474940 0.000004 -0.000000 0.000001 -0.822215 -1.866067 28.591677 0.378291 -1.840310 23.229972 0.247120 -1.498382 18.729550 -0.000002 -0.000002 0.000001 2.205329 -6.995213 32.676506 0.453283 -2.005941 25.464236 0.365915 -1.811197 22.841075 0.000002 0.000000 0.000001 4.563057 -11.613677 38.479404 0.502026 -2.105168 26.822961 0.615730 -2.316234 29.770056 0.000001 -0.000004 0.000000 -5.267059 7.999485 5.950743 14.972161 9.381594 1.347435 -4.415014 4.593934 -7.461247 1.064030 0.000002 0.000000 0.000000 0.000000 -0.000000 -3.312624 -8.987696 -7.843967 16.079910 -9.301414 1.061830 -7.025577 -5.296114 5.880106 -1.459488 0.000015 -0.000001 -0.000000 0.000001 -0.000000 
-0.384748 117.560898 0.155866 -4.504971 -0.982598 0.795170 3.857078 2.108044 -2.362006 0.779252 0.636650 -0.214313 0.000000 0.000000 0.000000 0.779022 0.632011 -0.219523 2.504435 -0.875463 0.156874 18.776654 -8.477598 0.864275 -0.000000 0.000000 -0.000000 2.725928 -4.533559 -12.333780 0.000000 0.000000 0.000000 -6.245860 -8.768372 -60.756589 0.000001 -15.406544 0.000003 22.884375 -9.466690 -12.270956 3.397815 -6.557756 3.595379 15.418061 21.359224 9.199027 -12.299712 5.460046 15.504555 -0.000000 -0.000003 -0.000001 -1.119845 -0.398001 -28.078605 0.305159 1.867854 -18.556292 0.038963 0.675228 -6.603853 -0.000001 0.000001 0.000001 0.143348 4.310977 -34.824252 0.439426 2.227988 -22.312094 0.191165 1.485822 -14.661915 -0.000003 0.000003 0.000000 5.850546 10.548834 -44.833563 0.441424 2.232826 -22.363016 0.304844 1.866885 -18.546371 -0.000001 0.000004 -0.000003 12.071307 15.267138 -50.593516 0.454701 2.264801 -22.701327 0.704968 2.788121 -28.374402 -0.000000 -0.000000 -0.000000 1.997979 1.881702 14.910771 0.000000 0.000000 0.000000 -3.306485 8.365061 62.900749 0.000003 13.174780 -0.000016 6.023902 12.660651 11.096686 -1.352771 9.111912 0.370099 17.154640 -29.828792 -5.994247 -14.108544 -13.068052 -16.356698 0.000002 -0.000000 -0.000001 -1.992496 1.916384 22.233608 0.366406 -1.812368 22.856912 0.067882 -0.793072 9.783455 -0.000003 0.000000 0.000001 -0.836415 -1.925786 29.374595 0.391624 -1.871059 23.641723 0.253020 -1.515677 18.953966 0.000000 -0.000003 0.000000 2.254770 -7.003501 33.488691 0.465555 -2.031491 25.812499 0.371875 -1.825301 23.029414 -0.000001 -0.000001 0.000001 4.679351 -11.600640 39.336658 0.513843 -2.128361 27.142852 0.621708 -2.326627 29.917513 0.000001 -0.000002 0.000000 -5.533287 7.931115 5.979933 15.458070 9.378300 1.352809 -4.641121 4.267473 -7.488653 1.061974 0.000004 0.000001 0.000000 -0.000001 -0.000000 -3.480653 -8.891059 -7.795129 16.606659 -9.327447 0.943962 -7.173593 -5.696314 5.867014 -1.463798 -0.000007 -0.000001 -0.000000 -0.000000 -0.000000 
-0.499316 117.453537 -0.120502 -4.716847 -0.654919 0.867680 4.052963 2.297691 -2.287625 0.816892 0.688821 -0.187654 0.000000 0.000000 0.000000 0.816969 0.683691 -0.193516 2.454511 -0.931647 0.156904 18.669868 -9.033302 0.984025 -0.000002 0.000001 -0.000000 2.731425 -4.597782 -12.332036 0.000000 0.000000 0.000000 -6.033518 -7.976578 -60.769224 -0.000000 -14.615915 -0.000004 23.498373 -9.138149 -12.293593 3.397821 -6.557755 3.595378 15.448430 21.411504 9.168661 -12.005054 5.721969 15.280868 -0.000001 0.000002 -0.000000 -1.062548 -0.357059 -28.005072 0.313275 1.891802 -18.803207 0.039997 0.684151 -6.691627 -0.000003 -0.000002 0.000000 0.172060 4.377160 -35.317467 0.444004 2.239070 -22.429272 0.188455 1.475425 -14.556871 -0.000001 0.000001 -0.000002 5.951453 10.614514 -45.075376 0.435976 2.219544 -22.222861 0.323246 1.920842 -19.103184 0.000000 0.000002 0.000001 12.075860 15.341344 -50.311884 0.484501 2.334707 -23.444127 0.712798 2.802527 -28.534893 0.000000 0.000003 0.000000 2.000276 2.088531 14.902337 0.000000 0.000000 0.000000 -3.800159 8.674484 62.681138 -0.000001 13.889302 0.000005 5.628963 13.001800 11.760486 -1.352774 9.111911 0.370099 17.142375 -29.817249 -6.000229 -14.180467 -12.896274 -16.481038 0.000003 0.000001 -0.000001 -2.046315 1.896134 22.639888 0.378270 -1.840225 23.228770 0.072300 -0.818319 10.098205 -0.000002 0.000000 -0.000002 -0.864189 -1.957214 30.119461 0.405465 -1.902315 24.061746 0.259406 -1.534120 19.193776 0.000002 0.000001 0.000001 2.313606 -7.025331 34.301852 0.478637 -2.058271 26.178727 0.378251 -1.840224 23.228847 -0.000001 0.000002 -0.000001 4.785208 -11.581172 40.184585 0.526299 -2.152471 27.476524 0.628246 -2.337946 30.078131 -0.000000 0.000001 0.000000 -5.743115 7.864527 6.008571 15.866403 9.376048 1.368132 -4.835847 3.938298 -7.509290 1.059914 -0.000003 -0.000003 -0.000000 -0.000001 0.000000 -3.581609 -8.848724 -7.762219 17.034359 -9.343969 0.879310 -7.283961 -6.043441 5.831104 -1.468108 0.000000 -0.000002 -0.000000 0.000002 -0.000000 
